<?xml version="1.0" encoding="utf-8" standalone="no"?>
<!DOCTYPE svg PUBLIC "-//W3C//DTD SVG 1.1//EN"
  "http://www.w3.org/Graphics/SVG/1.1/DTD/svg11.dtd">
<svg xmlns:xlink="http://www.w3.org/1999/xlink" width="460.8pt" height="345.6pt" viewBox="0 0 460.8 345.6" xmlns="http://www.w3.org/2000/svg" version="1.1">
 <metadata>
  <rdf:RDF xmlns:dc="http://purl.org/dc/elements/1.1/" xmlns:cc="http://creativecommons.org/ns#" xmlns:rdf="http://www.w3.org/1999/02/22-rdf-syntax-ns#">
   <cc:Work>
    <dc:type rdf:resource="http://purl.org/dc/dcmitype/StillImage"/>
    <dc:date>2023-10-13T16:13:33.405727</dc:date>
    <dc:format>image/svg+xml</dc:format>
    <dc:creator>
     <cc:Agent>
      <dc:title>Matplotlib v3.7.3, https://matplotlib.org/</dc:title>
     </cc:Agent>
    </dc:creator>
   </cc:Work>
  </rdf:RDF>
 </metadata>
 <defs>
  <style type="text/css">*{stroke-linejoin: round; stroke-linecap: butt}</style>
 </defs>
 <g id="figure_1">
  <g id="patch_1">
   <path d="M 0 345.6 
L 460.8 345.6 
L 460.8 0 
L 0 0 
z
" style="fill: #ffffff"/>
  </g>
  <g id="axes_1">
   <g id="patch_2">
    <path d="M 57.6 307.584 
L 414.72 307.584 
L 414.72 41.472 
L 57.6 41.472 
z
" style="fill: #ffffff"/>
   </g>
   <g id="matplotlib.axis_1"/>
   <g id="matplotlib.axis_2">
    <g id="ytick_1">
     <g id="line2d_1">
      <path d="M 57.6 279.375942 
L 414.72 279.375942 
" clip-path="url(#p7e639123de)" style="fill: none; stroke: #b0b0b0; stroke-width: 0.8; stroke-linecap: square"/>
     </g>
     <g id="line2d_2">
      <defs>
       <path id="m841eab4e4e" d="M 0 0 
L -3.5 0 
" style="stroke: #000000; stroke-width: 0.8"/>
      </defs>
      <g>
       <use xlink:href="#m841eab4e4e" x="57.6" y="279.375942" style="stroke: #000000; stroke-width: 0.8"/>
      </g>
     </g>
     <g id="text_1">
      <!-- 2 -->
      <g transform="translate(44.2375 283.175161) scale(0.1 -0.1)">
       <defs>
        <path id="DejaVuSans-32" d="M 1228 531 
L 3431 531 
L 3431 0 
L 469 0 
L 469 531 
Q 828 903 1448 1529 
Q 2069 2156 2228 2338 
Q 2531 2678 2651 2914 
Q 2772 3150 2772 3378 
Q 2772 3750 2511 3984 
Q 2250 4219 1831 4219 
Q 1534 4219 1204 4116 
Q 875 4013 500 3803 
L 500 4441 
Q 881 4594 1212 4672 
Q 1544 4750 1819 4750 
Q 2544 4750 2975 4387 
Q 3406 4025 3406 3419 
Q 3406 3131 3298 2873 
Q 3191 2616 2906 2266 
Q 2828 2175 2409 1742 
Q 1991 1309 1228 531 
z
" transform="scale(0.015625)"/>
       </defs>
       <use xlink:href="#DejaVuSans-32"/>
      </g>
     </g>
    </g>
    <g id="ytick_2">
     <g id="line2d_3">
      <path d="M 57.6 222.959825 
L 414.72 222.959825 
" clip-path="url(#p7e639123de)" style="fill: none; stroke: #b0b0b0; stroke-width: 0.8; stroke-linecap: square"/>
     </g>
     <g id="line2d_4">
      <g>
       <use xlink:href="#m841eab4e4e" x="57.6" y="222.959825" style="stroke: #000000; stroke-width: 0.8"/>
      </g>
     </g>
     <g id="text_2">
      <!-- 4 -->
      <g transform="translate(44.2375 226.759044) scale(0.1 -0.1)">
       <defs>
        <path id="DejaVuSans-34" d="M 2419 4116 
L 825 1625 
L 2419 1625 
L 2419 4116 
z
M 2253 4666 
L 3047 4666 
L 3047 1625 
L 3713 1625 
L 3713 1100 
L 3047 1100 
L 3047 0 
L 2419 0 
L 2419 1100 
L 313 1100 
L 313 1709 
L 2253 4666 
z
" transform="scale(0.015625)"/>
       </defs>
       <use xlink:href="#DejaVuSans-34"/>
      </g>
     </g>
    </g>
    <g id="ytick_3">
     <g id="line2d_5">
      <path d="M 57.6 166.543709 
L 414.72 166.543709 
" clip-path="url(#p7e639123de)" style="fill: none; stroke: #b0b0b0; stroke-width: 0.8; stroke-linecap: square"/>
     </g>
     <g id="line2d_6">
      <g>
       <use xlink:href="#m841eab4e4e" x="57.6" y="166.543709" style="stroke: #000000; stroke-width: 0.8"/>
      </g>
     </g>
     <g id="text_3">
      <!-- 6 -->
      <g transform="translate(44.2375 170.342928) scale(0.1 -0.1)">
       <defs>
        <path id="DejaVuSans-36" d="M 2113 2584 
Q 1688 2584 1439 2293 
Q 1191 2003 1191 1497 
Q 1191 994 1439 701 
Q 1688 409 2113 409 
Q 2538 409 2786 701 
Q 3034 994 3034 1497 
Q 3034 2003 2786 2293 
Q 2538 2584 2113 2584 
z
M 3366 4563 
L 3366 3988 
Q 3128 4100 2886 4159 
Q 2644 4219 2406 4219 
Q 1781 4219 1451 3797 
Q 1122 3375 1075 2522 
Q 1259 2794 1537 2939 
Q 1816 3084 2150 3084 
Q 2853 3084 3261 2657 
Q 3669 2231 3669 1497 
Q 3669 778 3244 343 
Q 2819 -91 2113 -91 
Q 1303 -91 875 529 
Q 447 1150 447 2328 
Q 447 3434 972 4092 
Q 1497 4750 2381 4750 
Q 2619 4750 2861 4703 
Q 3103 4656 3366 4563 
z
" transform="scale(0.015625)"/>
       </defs>
       <use xlink:href="#DejaVuSans-36"/>
      </g>
     </g>
    </g>
    <g id="ytick_4">
     <g id="line2d_7">
      <path d="M 57.6 110.127593 
L 414.72 110.127593 
" clip-path="url(#p7e639123de)" style="fill: none; stroke: #b0b0b0; stroke-width: 0.8; stroke-linecap: square"/>
     </g>
     <g id="line2d_8">
      <g>
       <use xlink:href="#m841eab4e4e" x="57.6" y="110.127593" style="stroke: #000000; stroke-width: 0.8"/>
      </g>
     </g>
     <g id="text_4">
      <!-- 8 -->
      <g transform="translate(44.2375 113.926812) scale(0.1 -0.1)">
       <defs>
        <path id="DejaVuSans-38" d="M 2034 2216 
Q 1584 2216 1326 1975 
Q 1069 1734 1069 1313 
Q 1069 891 1326 650 
Q 1584 409 2034 409 
Q 2484 409 2743 651 
Q 3003 894 3003 1313 
Q 3003 1734 2745 1975 
Q 2488 2216 2034 2216 
z
M 1403 2484 
Q 997 2584 770 2862 
Q 544 3141 544 3541 
Q 544 4100 942 4425 
Q 1341 4750 2034 4750 
Q 2731 4750 3128 4425 
Q 3525 4100 3525 3541 
Q 3525 3141 3298 2862 
Q 3072 2584 2669 2484 
Q 3125 2378 3379 2068 
Q 3634 1759 3634 1313 
Q 3634 634 3220 271 
Q 2806 -91 2034 -91 
Q 1263 -91 848 271 
Q 434 634 434 1313 
Q 434 1759 690 2068 
Q 947 2378 1403 2484 
z
M 1172 3481 
Q 1172 3119 1398 2916 
Q 1625 2713 2034 2713 
Q 2441 2713 2670 2916 
Q 2900 3119 2900 3481 
Q 2900 3844 2670 4047 
Q 2441 4250 2034 4250 
Q 1625 4250 1398 4047 
Q 1172 3844 1172 3481 
z
" transform="scale(0.015625)"/>
       </defs>
       <use xlink:href="#DejaVuSans-38"/>
      </g>
     </g>
    </g>
    <g id="ytick_5">
     <g id="line2d_9">
      <path d="M 57.6 53.711476 
L 414.72 53.711476 
" clip-path="url(#p7e639123de)" style="fill: none; stroke: #b0b0b0; stroke-width: 0.8; stroke-linecap: square"/>
     </g>
     <g id="line2d_10">
      <g>
       <use xlink:href="#m841eab4e4e" x="57.6" y="53.711476" style="stroke: #000000; stroke-width: 0.8"/>
      </g>
     </g>
     <g id="text_5">
      <!-- 10 -->
      <g transform="translate(37.875 57.510695) scale(0.1 -0.1)">
       <defs>
        <path id="DejaVuSans-31" d="M 794 531 
L 1825 531 
L 1825 4091 
L 703 3866 
L 703 4441 
L 1819 4666 
L 2450 4666 
L 2450 531 
L 3481 531 
L 3481 0 
L 794 0 
L 794 531 
z
" transform="scale(0.015625)"/>
        <path id="DejaVuSans-30" d="M 2034 4250 
Q 1547 4250 1301 3770 
Q 1056 3291 1056 2328 
Q 1056 1369 1301 889 
Q 1547 409 2034 409 
Q 2525 409 2770 889 
Q 3016 1369 3016 2328 
Q 3016 3291 2770 3770 
Q 2525 4250 2034 4250 
z
M 2034 4750 
Q 2819 4750 3233 4129 
Q 3647 3509 3647 2328 
Q 3647 1150 3233 529 
Q 2819 -91 2034 -91 
Q 1250 -91 836 529 
Q 422 1150 422 2328 
Q 422 3509 836 4129 
Q 1250 4750 2034 4750 
z
" transform="scale(0.015625)"/>
       </defs>
       <use xlink:href="#DejaVuSans-31"/>
       <use xlink:href="#DejaVuSans-30" x="63.623047"/>
      </g>
     </g>
    </g>
    <g id="ytick_6">
     <g id="line2d_11">
      <path d="M 57.6 307.584 
L 414.72 307.584 
" clip-path="url(#p7e639123de)" style="fill: none; stroke: #b0b0b0; stroke-width: 0.8; stroke-linecap: square"/>
     </g>
     <g id="line2d_12"/>
    </g>
    <g id="ytick_7">
     <g id="line2d_13">
      <path d="M 57.6 293.479971 
L 414.72 293.479971 
" clip-path="url(#p7e639123de)" style="fill: none; stroke: #b0b0b0; stroke-width: 0.8; stroke-linecap: square"/>
     </g>
     <g id="line2d_14"/>
    </g>
    <g id="ytick_8">
     <g id="line2d_15">
      <path d="M 57.6 265.271913 
L 414.72 265.271913 
" clip-path="url(#p7e639123de)" style="fill: none; stroke: #b0b0b0; stroke-width: 0.8; stroke-linecap: square"/>
     </g>
     <g id="line2d_16"/>
    </g>
    <g id="ytick_9">
     <g id="line2d_17">
      <path d="M 57.6 251.167884 
L 414.72 251.167884 
" clip-path="url(#p7e639123de)" style="fill: none; stroke: #b0b0b0; stroke-width: 0.8; stroke-linecap: square"/>
     </g>
     <g id="line2d_18"/>
    </g>
    <g id="ytick_10">
     <g id="line2d_19">
      <path d="M 57.6 237.063855 
L 414.72 237.063855 
" clip-path="url(#p7e639123de)" style="fill: none; stroke: #b0b0b0; stroke-width: 0.8; stroke-linecap: square"/>
     </g>
     <g id="line2d_20"/>
    </g>
    <g id="ytick_11">
     <g id="line2d_21">
      <path d="M 57.6 208.855796 
L 414.72 208.855796 
" clip-path="url(#p7e639123de)" style="fill: none; stroke: #b0b0b0; stroke-width: 0.8; stroke-linecap: square"/>
     </g>
     <g id="line2d_22"/>
    </g>
    <g id="ytick_12">
     <g id="line2d_23">
      <path d="M 57.6 194.751767 
L 414.72 194.751767 
" clip-path="url(#p7e639123de)" style="fill: none; stroke: #b0b0b0; stroke-width: 0.8; stroke-linecap: square"/>
     </g>
     <g id="line2d_24"/>
    </g>
    <g id="ytick_13">
     <g id="line2d_25">
      <path d="M 57.6 180.647738 
L 414.72 180.647738 
" clip-path="url(#p7e639123de)" style="fill: none; stroke: #b0b0b0; stroke-width: 0.8; stroke-linecap: square"/>
     </g>
     <g id="line2d_26"/>
    </g>
    <g id="ytick_14">
     <g id="line2d_27">
      <path d="M 57.6 152.43968 
L 414.72 152.43968 
" clip-path="url(#p7e639123de)" style="fill: none; stroke: #b0b0b0; stroke-width: 0.8; stroke-linecap: square"/>
     </g>
     <g id="line2d_28"/>
    </g>
    <g id="ytick_15">
     <g id="line2d_29">
      <path d="M 57.6 138.335651 
L 414.72 138.335651 
" clip-path="url(#p7e639123de)" style="fill: none; stroke: #b0b0b0; stroke-width: 0.8; stroke-linecap: square"/>
     </g>
     <g id="line2d_30"/>
    </g>
    <g id="ytick_16">
     <g id="line2d_31">
      <path d="M 57.6 124.231622 
L 414.72 124.231622 
" clip-path="url(#p7e639123de)" style="fill: none; stroke: #b0b0b0; stroke-width: 0.8; stroke-linecap: square"/>
     </g>
     <g id="line2d_32"/>
    </g>
    <g id="ytick_17">
     <g id="line2d_33">
      <path d="M 57.6 96.023564 
L 414.72 96.023564 
" clip-path="url(#p7e639123de)" style="fill: none; stroke: #b0b0b0; stroke-width: 0.8; stroke-linecap: square"/>
     </g>
     <g id="line2d_34"/>
    </g>
    <g id="ytick_18">
     <g id="line2d_35">
      <path d="M 57.6 81.919535 
L 414.72 81.919535 
" clip-path="url(#p7e639123de)" style="fill: none; stroke: #b0b0b0; stroke-width: 0.8; stroke-linecap: square"/>
     </g>
     <g id="line2d_36"/>
    </g>
    <g id="ytick_19">
     <g id="line2d_37">
      <path d="M 57.6 67.815506 
L 414.72 67.815506 
" clip-path="url(#p7e639123de)" style="fill: none; stroke: #b0b0b0; stroke-width: 0.8; stroke-linecap: square"/>
     </g>
     <g id="line2d_38"/>
    </g>
    <g id="text_6">
     <!-- TTFB (s) -->
     <g transform="translate(31.795312 194.949875) rotate(-90) scale(0.1 -0.1)">
      <defs>
       <path id="DejaVuSans-54" d="M -19 4666 
L 3928 4666 
L 3928 4134 
L 2272 4134 
L 2272 0 
L 1638 0 
L 1638 4134 
L -19 4134 
L -19 4666 
z
" transform="scale(0.015625)"/>
       <path id="DejaVuSans-46" d="M 628 4666 
L 3309 4666 
L 3309 4134 
L 1259 4134 
L 1259 2759 
L 3109 2759 
L 3109 2228 
L 1259 2228 
L 1259 0 
L 628 0 
L 628 4666 
z
" transform="scale(0.015625)"/>
       <path id="DejaVuSans-42" d="M 1259 2228 
L 1259 519 
L 2272 519 
Q 2781 519 3026 730 
Q 3272 941 3272 1375 
Q 3272 1813 3026 2020 
Q 2781 2228 2272 2228 
L 1259 2228 
z
M 1259 4147 
L 1259 2741 
L 2194 2741 
Q 2656 2741 2882 2914 
Q 3109 3088 3109 3444 
Q 3109 3797 2882 3972 
Q 2656 4147 2194 4147 
L 1259 4147 
z
M 628 4666 
L 2241 4666 
Q 2963 4666 3353 4366 
Q 3744 4066 3744 3513 
Q 3744 3084 3544 2831 
Q 3344 2578 2956 2516 
Q 3422 2416 3680 2098 
Q 3938 1781 3938 1306 
Q 3938 681 3513 340 
Q 3088 0 2303 0 
L 628 0 
L 628 4666 
z
" transform="scale(0.015625)"/>
       <path id="DejaVuSans-20" transform="scale(0.015625)"/>
       <path id="DejaVuSans-28" d="M 1984 4856 
Q 1566 4138 1362 3434 
Q 1159 2731 1159 2009 
Q 1159 1288 1364 580 
Q 1569 -128 1984 -844 
L 1484 -844 
Q 1016 -109 783 600 
Q 550 1309 550 2009 
Q 550 2706 781 3412 
Q 1013 4119 1484 4856 
L 1984 4856 
z
" transform="scale(0.015625)"/>
       <path id="DejaVuSans-73" d="M 2834 3397 
L 2834 2853 
Q 2591 2978 2328 3040 
Q 2066 3103 1784 3103 
Q 1356 3103 1142 2972 
Q 928 2841 928 2578 
Q 928 2378 1081 2264 
Q 1234 2150 1697 2047 
L 1894 2003 
Q 2506 1872 2764 1633 
Q 3022 1394 3022 966 
Q 3022 478 2636 193 
Q 2250 -91 1575 -91 
Q 1294 -91 989 -36 
Q 684 19 347 128 
L 347 722 
Q 666 556 975 473 
Q 1284 391 1588 391 
Q 1994 391 2212 530 
Q 2431 669 2431 922 
Q 2431 1156 2273 1281 
Q 2116 1406 1581 1522 
L 1381 1569 
Q 847 1681 609 1914 
Q 372 2147 372 2553 
Q 372 3047 722 3315 
Q 1072 3584 1716 3584 
Q 2034 3584 2315 3537 
Q 2597 3491 2834 3397 
z
" transform="scale(0.015625)"/>
       <path id="DejaVuSans-29" d="M 513 4856 
L 1013 4856 
Q 1481 4119 1714 3412 
Q 1947 2706 1947 2009 
Q 1947 1309 1714 600 
Q 1481 -109 1013 -844 
L 513 -844 
Q 928 -128 1133 580 
Q 1338 1288 1338 2009 
Q 1338 2731 1133 3434 
Q 928 4138 513 4856 
z
" transform="scale(0.015625)"/>
      </defs>
      <use xlink:href="#DejaVuSans-54"/>
      <use xlink:href="#DejaVuSans-54" x="59.333984"/>
      <use xlink:href="#DejaVuSans-46" x="120.417969"/>
      <use xlink:href="#DejaVuSans-42" x="177.9375"/>
      <use xlink:href="#DejaVuSans-20" x="246.541016"/>
      <use xlink:href="#DejaVuSans-28" x="278.328125"/>
      <use xlink:href="#DejaVuSans-73" x="317.341797"/>
      <use xlink:href="#DejaVuSans-29" x="369.441406"/>
     </g>
    </g>
   </g>
   <g id="patch_3">
    <path d="M 218.304 216.232204 
L 254.016 216.232204 
L 254.016 169.97804 
L 218.304 169.97804 
L 218.304 216.232204 
z
" clip-path="url(#p7e639123de)" style="fill: #0e8088; stroke: #ffffff; stroke-width: 0.5; stroke-linejoin: miter"/>
   </g>
   <g id="line2d_39">
    <path d="M 236.16 216.232204 
L 236.16 285.609923 
" clip-path="url(#p7e639123de)" style="fill: none; stroke: #0e8088; stroke-width: 1.5; stroke-linecap: square"/>
   </g>
   <g id="line2d_40">
    <path d="M 236.16 169.97804 
L 236.16 100.706101 
" clip-path="url(#p7e639123de)" style="fill: none; stroke: #0e8088; stroke-width: 1.5; stroke-linecap: square"/>
   </g>
   <g id="line2d_41">
    <path d="M 227.232 285.609923 
L 245.088 285.609923 
" clip-path="url(#p7e639123de)" style="fill: none; stroke: #0e8088; stroke-width: 1.5; stroke-linecap: square"/>
   </g>
   <g id="line2d_42">
    <path d="M 227.232 100.706101 
L 245.088 100.706101 
" clip-path="url(#p7e639123de)" style="fill: none; stroke: #0e8088; stroke-width: 1.5; stroke-linecap: square"/>
   </g>
   <g id="line2d_43">
    <defs>
     <path id="m7a546da424" d="M -3 0 
L 3 0 
M 0 3 
L 0 -3 
" style="stroke: #000000"/>
    </defs>
    <g clip-path="url(#p7e639123de)">
     <use xlink:href="#m7a546da424" x="236.16" y="285.948419" style="fill-opacity: 0; stroke: #000000"/>
     <use xlink:href="#m7a546da424" x="236.16" y="286.738245" style="fill-opacity: 0; stroke: #000000"/>
     <use xlink:href="#m7a546da424" x="236.16" y="285.920211" style="fill-opacity: 0; stroke: #000000"/>
     <use xlink:href="#m7a546da424" x="236.16" y="285.948419" style="fill-opacity: 0; stroke: #000000"/>
     <use xlink:href="#m7a546da424" x="236.16" y="287.838359" style="fill-opacity: 0; stroke: #000000"/>
     <use xlink:href="#m7a546da424" x="236.16" y="285.779171" style="fill-opacity: 0; stroke: #000000"/>
     <use xlink:href="#m7a546da424" x="236.16" y="286.343332" style="fill-opacity: 0; stroke: #000000"/>
     <use xlink:href="#m7a546da424" x="236.16" y="286.033044" style="fill-opacity: 0; stroke: #000000"/>
     <use xlink:href="#m7a546da424" x="236.16" y="286.456164" style="fill-opacity: 0; stroke: #000000"/>
     <use xlink:href="#m7a546da424" x="236.16" y="287.330614" style="fill-opacity: 0; stroke: #000000"/>
     <use xlink:href="#m7a546da424" x="236.16" y="285.920211" style="fill-opacity: 0; stroke: #000000"/>
     <use xlink:href="#m7a546da424" x="236.16" y="286.963909" style="fill-opacity: 0; stroke: #000000"/>
     <use xlink:href="#m7a546da424" x="236.16" y="286.681829" style="fill-opacity: 0; stroke: #000000"/>
     <use xlink:href="#m7a546da424" x="236.16" y="286.2305" style="fill-opacity: 0; stroke: #000000"/>
     <use xlink:href="#m7a546da424" x="236.16" y="286.738245" style="fill-opacity: 0; stroke: #000000"/>
     <use xlink:href="#m7a546da424" x="236.16" y="286.202292" style="fill-opacity: 0; stroke: #000000"/>
     <use xlink:href="#m7a546da424" x="236.16" y="286.37154" style="fill-opacity: 0; stroke: #000000"/>
     <use xlink:href="#m7a546da424" x="236.16" y="286.540789" style="fill-opacity: 0; stroke: #000000"/>
     <use xlink:href="#m7a546da424" x="236.16" y="286.653621" style="fill-opacity: 0; stroke: #000000"/>
     <use xlink:href="#m7a546da424" x="236.16" y="287.612695" style="fill-opacity: 0; stroke: #000000"/>
     <use xlink:href="#m7a546da424" x="236.16" y="286.145876" style="fill-opacity: 0; stroke: #000000"/>
     <use xlink:href="#m7a546da424" x="236.16" y="286.315124" style="fill-opacity: 0; stroke: #000000"/>
     <use xlink:href="#m7a546da424" x="236.16" y="287.302406" style="fill-opacity: 0; stroke: #000000"/>
     <use xlink:href="#m7a546da424" x="236.16" y="287.443446" style="fill-opacity: 0; stroke: #000000"/>
     <use xlink:href="#m7a546da424" x="236.16" y="286.033044" style="fill-opacity: 0; stroke: #000000"/>
     <use xlink:href="#m7a546da424" x="236.16" y="286.061252" style="fill-opacity: 0; stroke: #000000"/>
     <use xlink:href="#m7a546da424" x="236.16" y="286.597205" style="fill-opacity: 0; stroke: #000000"/>
     <use xlink:href="#m7a546da424" x="236.16" y="285.779171" style="fill-opacity: 0; stroke: #000000"/>
     <use xlink:href="#m7a546da424" x="236.16" y="286.117668" style="fill-opacity: 0; stroke: #000000"/>
     <use xlink:href="#m7a546da424" x="236.16" y="286.033044" style="fill-opacity: 0; stroke: #000000"/>
     <use xlink:href="#m7a546da424" x="236.16" y="286.004835" style="fill-opacity: 0; stroke: #000000"/>
     <use xlink:href="#m7a546da424" x="236.16" y="287.697319" style="fill-opacity: 0; stroke: #000000"/>
     <use xlink:href="#m7a546da424" x="236.16" y="286.568997" style="fill-opacity: 0; stroke: #000000"/>
     <use xlink:href="#m7a546da424" x="236.16" y="286.568997" style="fill-opacity: 0; stroke: #000000"/>
     <use xlink:href="#m7a546da424" x="236.16" y="287.697319" style="fill-opacity: 0; stroke: #000000"/>
     <use xlink:href="#m7a546da424" x="236.16" y="286.286916" style="fill-opacity: 0; stroke: #000000"/>
     <use xlink:href="#m7a546da424" x="236.16" y="285.807379" style="fill-opacity: 0; stroke: #000000"/>
     <use xlink:href="#m7a546da424" x="236.16" y="286.907493" style="fill-opacity: 0; stroke: #000000"/>
     <use xlink:href="#m7a546da424" x="236.16" y="286.540789" style="fill-opacity: 0; stroke: #000000"/>
     <use xlink:href="#m7a546da424" x="236.16" y="285.666339" style="fill-opacity: 0; stroke: #000000"/>
     <use xlink:href="#m7a546da424" x="236.16" y="286.427956" style="fill-opacity: 0; stroke: #000000"/>
     <use xlink:href="#m7a546da424" x="236.16" y="286.484372" style="fill-opacity: 0; stroke: #000000"/>
     <use xlink:href="#m7a546da424" x="236.16" y="286.258708" style="fill-opacity: 0; stroke: #000000"/>
     <use xlink:href="#m7a546da424" x="236.16" y="286.145876" style="fill-opacity: 0; stroke: #000000"/>
     <use xlink:href="#m7a546da424" x="236.16" y="285.863795" style="fill-opacity: 0; stroke: #000000"/>
     <use xlink:href="#m7a546da424" x="236.16" y="286.456164" style="fill-opacity: 0; stroke: #000000"/>
     <use xlink:href="#m7a546da424" x="236.16" y="286.851077" style="fill-opacity: 0; stroke: #000000"/>
     <use xlink:href="#m7a546da424" x="236.16" y="286.568997" style="fill-opacity: 0; stroke: #000000"/>
     <use xlink:href="#m7a546da424" x="236.16" y="287.415238" style="fill-opacity: 0; stroke: #000000"/>
     <use xlink:href="#m7a546da424" x="236.16" y="286.2305" style="fill-opacity: 0; stroke: #000000"/>
     <use xlink:href="#m7a546da424" x="236.16" y="286.061252" style="fill-opacity: 0; stroke: #000000"/>
     <use xlink:href="#m7a546da424" x="236.16" y="286.37154" style="fill-opacity: 0; stroke: #000000"/>
     <use xlink:href="#m7a546da424" x="236.16" y="286.456164" style="fill-opacity: 0; stroke: #000000"/>
     <use xlink:href="#m7a546da424" x="236.16" y="98.928994" style="fill-opacity: 0; stroke: #000000"/>
     <use xlink:href="#m7a546da424" x="236.16" y="78.844856" style="fill-opacity: 0; stroke: #000000"/>
     <use xlink:href="#m7a546da424" x="236.16" y="92.074436" style="fill-opacity: 0; stroke: #000000"/>
     <use xlink:href="#m7a546da424" x="236.16" y="55.375752" style="fill-opacity: 0; stroke: #000000"/>
     <use xlink:href="#m7a546da424" x="236.16" y="68.605331" style="fill-opacity: 0; stroke: #000000"/>
     <use xlink:href="#m7a546da424" x="236.16" y="94.133624" style="fill-opacity: 0; stroke: #000000"/>
     <use xlink:href="#m7a546da424" x="236.16" y="58.45043" style="fill-opacity: 0; stroke: #000000"/>
     <use xlink:href="#m7a546da424" x="236.16" y="88.153515" style="fill-opacity: 0; stroke: #000000"/>
     <use xlink:href="#m7a546da424" x="236.16" y="76.531796" style="fill-opacity: 0; stroke: #000000"/>
     <use xlink:href="#m7a546da424" x="236.16" y="85.163461" style="fill-opacity: 0; stroke: #000000"/>
     <use xlink:href="#m7a546da424" x="236.16" y="73.569949" style="fill-opacity: 0; stroke: #000000"/>
     <use xlink:href="#m7a546da424" x="236.16" y="69.93111" style="fill-opacity: 0; stroke: #000000"/>
     <use xlink:href="#m7a546da424" x="236.16" y="94.923449" style="fill-opacity: 0; stroke: #000000"/>
     <use xlink:href="#m7a546da424" x="236.16" y="79.80393" style="fill-opacity: 0; stroke: #000000"/>
     <use xlink:href="#m7a546da424" x="236.16" y="99.775235" style="fill-opacity: 0; stroke: #000000"/>
     <use xlink:href="#m7a546da424" x="236.16" y="92.807845" style="fill-opacity: 0; stroke: #000000"/>
     <use xlink:href="#m7a546da424" x="236.16" y="76.870292" style="fill-opacity: 0; stroke: #000000"/>
     <use xlink:href="#m7a546da424" x="236.16" y="62.37135" style="fill-opacity: 0; stroke: #000000"/>
     <use xlink:href="#m7a546da424" x="236.16" y="92.102644" style="fill-opacity: 0; stroke: #000000"/>
     <use xlink:href="#m7a546da424" x="236.16" y="100.226564" style="fill-opacity: 0; stroke: #000000"/>
     <use xlink:href="#m7a546da424" x="236.16" y="94.782409" style="fill-opacity: 0; stroke: #000000"/>
     <use xlink:href="#m7a546da424" x="236.16" y="95.34657" style="fill-opacity: 0; stroke: #000000"/>
     <use xlink:href="#m7a546da424" x="236.16" y="71.228681" style="fill-opacity: 0; stroke: #000000"/>
     <use xlink:href="#m7a546da424" x="236.16" y="96.305644" style="fill-opacity: 0; stroke: #000000"/>
     <use xlink:href="#m7a546da424" x="236.16" y="53.344772" style="fill-opacity: 0; stroke: #000000"/>
     <use xlink:href="#m7a546da424" x="236.16" y="82.032367" style="fill-opacity: 0; stroke: #000000"/>
     <use xlink:href="#m7a546da424" x="236.16" y="91.905187" style="fill-opacity: 0; stroke: #000000"/>
     <use xlink:href="#m7a546da424" x="236.16" y="77.91399" style="fill-opacity: 0; stroke: #000000"/>
     <use xlink:href="#m7a546da424" x="236.16" y="87.081609" style="fill-opacity: 0; stroke: #000000"/>
     <use xlink:href="#m7a546da424" x="236.16" y="74.387983" style="fill-opacity: 0; stroke: #000000"/>
     <use xlink:href="#m7a546da424" x="236.16" y="88.52022" style="fill-opacity: 0; stroke: #000000"/>
     <use xlink:href="#m7a546da424" x="236.16" y="81.355373" style="fill-opacity: 0; stroke: #000000"/>
     <use xlink:href="#m7a546da424" x="236.16" y="99.323907" style="fill-opacity: 0; stroke: #000000"/>
     <use xlink:href="#m7a546da424" x="236.16" y="69.169492" style="fill-opacity: 0; stroke: #000000"/>
     <use xlink:href="#m7a546da424" x="236.16" y="98.139168" style="fill-opacity: 0; stroke: #000000"/>
     <use xlink:href="#m7a546da424" x="236.16" y="100.28298" style="fill-opacity: 0; stroke: #000000"/>
     <use xlink:href="#m7a546da424" x="236.16" y="97.998128" style="fill-opacity: 0; stroke: #000000"/>
     <use xlink:href="#m7a546da424" x="236.16" y="65.840941" style="fill-opacity: 0; stroke: #000000"/>
     <use xlink:href="#m7a546da424" x="236.16" y="99.718819" style="fill-opacity: 0; stroke: #000000"/>
     <use xlink:href="#m7a546da424" x="236.16" y="80.227051" style="fill-opacity: 0; stroke: #000000"/>
     <use xlink:href="#m7a546da424" x="236.16" y="100.0009" style="fill-opacity: 0; stroke: #000000"/>
     <use xlink:href="#m7a546da424" x="236.16" y="94.472121" style="fill-opacity: 0; stroke: #000000"/>
     <use xlink:href="#m7a546da424" x="236.16" y="80.142427" style="fill-opacity: 0; stroke: #000000"/>
     <use xlink:href="#m7a546da424" x="236.16" y="67.477009" style="fill-opacity: 0; stroke: #000000"/>
     <use xlink:href="#m7a546da424" x="236.16" y="99.182866" style="fill-opacity: 0; stroke: #000000"/>
     <use xlink:href="#m7a546da424" x="236.16" y="80.480924" style="fill-opacity: 0; stroke: #000000"/>
     <use xlink:href="#m7a546da424" x="236.16" y="75.854802" style="fill-opacity: 0; stroke: #000000"/>
     <use xlink:href="#m7a546da424" x="236.16" y="97.123678" style="fill-opacity: 0; stroke: #000000"/>
     <use xlink:href="#m7a546da424" x="236.16" y="79.352601" style="fill-opacity: 0; stroke: #000000"/>
     <use xlink:href="#m7a546da424" x="236.16" y="53.203731" style="fill-opacity: 0; stroke: #000000"/>
    </g>
   </g>
   <g id="line2d_44">
    <path d="M 218.304 195.315928 
L 254.016 195.315928 
" clip-path="url(#p7e639123de)" style="fill: none; stroke: #ffffff; stroke-linecap: square"/>
   </g>
   <g id="patch_4">
    <path d="M 57.6 307.584 
L 57.6 41.472 
" style="fill: none; stroke: #000000; stroke-width: 0.8; stroke-linejoin: miter; stroke-linecap: square"/>
   </g>
   <g id="patch_5">
    <path d="M 414.72 307.584 
L 414.72 41.472 
" style="fill: none; stroke: #000000; stroke-width: 0.8; stroke-linejoin: miter; stroke-linecap: square"/>
   </g>
   <g id="patch_6">
    <path d="M 57.6 307.584 
L 414.72 307.584 
" style="fill: none; stroke: #000000; stroke-width: 0.8; stroke-linejoin: miter; stroke-linecap: square"/>
   </g>
   <g id="patch_7">
    <path d="M 57.6 41.472 
L 414.72 41.472 
" style="fill: none; stroke: #000000; stroke-width: 0.8; stroke-linejoin: miter; stroke-linecap: square"/>
   </g>
   <g id="legend_1">
    <g id="patch_8">
     <path d="M 290.72 64.150125 
L 407.72 64.150125 
Q 409.72 64.150125 409.72 62.150125 
L 409.72 48.472 
Q 409.72 46.472 407.72 46.472 
L 290.72 46.472 
Q 288.72 46.472 288.72 48.472 
L 288.72 62.150125 
Q 288.72 64.150125 290.72 64.150125 
z
" style="fill: #ffffff; opacity: 0.8; stroke: #cccccc; stroke-linejoin: miter"/>
    </g>
    <g id="patch_9">
     <path d="M 292.72 58.070438 
L 312.72 58.070438 
L 312.72 51.070438 
L 292.72 51.070438 
z
" style="fill: #0e8088; stroke: #ffffff; stroke-width: 0.5; stroke-linejoin: miter"/>
    </g>
    <g id="text_7">
     <!-- Baseline Bitswap -->
     <g transform="translate(320.72 58.070438) scale(0.1 -0.1)">
      <defs>
       <path id="DejaVuSans-61" d="M 2194 1759 
Q 1497 1759 1228 1600 
Q 959 1441 959 1056 
Q 959 750 1161 570 
Q 1363 391 1709 391 
Q 2188 391 2477 730 
Q 2766 1069 2766 1631 
L 2766 1759 
L 2194 1759 
z
M 3341 1997 
L 3341 0 
L 2766 0 
L 2766 531 
Q 2569 213 2275 61 
Q 1981 -91 1556 -91 
Q 1019 -91 701 211 
Q 384 513 384 1019 
Q 384 1609 779 1909 
Q 1175 2209 1959 2209 
L 2766 2209 
L 2766 2266 
Q 2766 2663 2505 2880 
Q 2244 3097 1772 3097 
Q 1472 3097 1187 3025 
Q 903 2953 641 2809 
L 641 3341 
Q 956 3463 1253 3523 
Q 1550 3584 1831 3584 
Q 2591 3584 2966 3190 
Q 3341 2797 3341 1997 
z
" transform="scale(0.015625)"/>
       <path id="DejaVuSans-65" d="M 3597 1894 
L 3597 1613 
L 953 1613 
Q 991 1019 1311 708 
Q 1631 397 2203 397 
Q 2534 397 2845 478 
Q 3156 559 3463 722 
L 3463 178 
Q 3153 47 2828 -22 
Q 2503 -91 2169 -91 
Q 1331 -91 842 396 
Q 353 884 353 1716 
Q 353 2575 817 3079 
Q 1281 3584 2069 3584 
Q 2775 3584 3186 3129 
Q 3597 2675 3597 1894 
z
M 3022 2063 
Q 3016 2534 2758 2815 
Q 2500 3097 2075 3097 
Q 1594 3097 1305 2825 
Q 1016 2553 972 2059 
L 3022 2063 
z
" transform="scale(0.015625)"/>
       <path id="DejaVuSans-6c" d="M 603 4863 
L 1178 4863 
L 1178 0 
L 603 0 
L 603 4863 
z
" transform="scale(0.015625)"/>
       <path id="DejaVuSans-69" d="M 603 3500 
L 1178 3500 
L 1178 0 
L 603 0 
L 603 3500 
z
M 603 4863 
L 1178 4863 
L 1178 4134 
L 603 4134 
L 603 4863 
z
" transform="scale(0.015625)"/>
       <path id="DejaVuSans-6e" d="M 3513 2113 
L 3513 0 
L 2938 0 
L 2938 2094 
Q 2938 2591 2744 2837 
Q 2550 3084 2163 3084 
Q 1697 3084 1428 2787 
Q 1159 2491 1159 1978 
L 1159 0 
L 581 0 
L 581 3500 
L 1159 3500 
L 1159 2956 
Q 1366 3272 1645 3428 
Q 1925 3584 2291 3584 
Q 2894 3584 3203 3211 
Q 3513 2838 3513 2113 
z
" transform="scale(0.015625)"/>
       <path id="DejaVuSans-74" d="M 1172 4494 
L 1172 3500 
L 2356 3500 
L 2356 3053 
L 1172 3053 
L 1172 1153 
Q 1172 725 1289 603 
Q 1406 481 1766 481 
L 2356 481 
L 2356 0 
L 1766 0 
Q 1100 0 847 248 
Q 594 497 594 1153 
L 594 3053 
L 172 3053 
L 172 3500 
L 594 3500 
L 594 4494 
L 1172 4494 
z
" transform="scale(0.015625)"/>
       <path id="DejaVuSans-77" d="M 269 3500 
L 844 3500 
L 1563 769 
L 2278 3500 
L 2956 3500 
L 3675 769 
L 4391 3500 
L 4966 3500 
L 4050 0 
L 3372 0 
L 2619 2869 
L 1863 0 
L 1184 0 
L 269 3500 
z
" transform="scale(0.015625)"/>
       <path id="DejaVuSans-70" d="M 1159 525 
L 1159 -1331 
L 581 -1331 
L 581 3500 
L 1159 3500 
L 1159 2969 
Q 1341 3281 1617 3432 
Q 1894 3584 2278 3584 
Q 2916 3584 3314 3078 
Q 3713 2572 3713 1747 
Q 3713 922 3314 415 
Q 2916 -91 2278 -91 
Q 1894 -91 1617 61 
Q 1341 213 1159 525 
z
M 3116 1747 
Q 3116 2381 2855 2742 
Q 2594 3103 2138 3103 
Q 1681 3103 1420 2742 
Q 1159 2381 1159 1747 
Q 1159 1113 1420 752 
Q 1681 391 2138 391 
Q 2594 391 2855 752 
Q 3116 1113 3116 1747 
z
" transform="scale(0.015625)"/>
      </defs>
      <use xlink:href="#DejaVuSans-42"/>
      <use xlink:href="#DejaVuSans-61" x="68.603516"/>
      <use xlink:href="#DejaVuSans-73" x="129.882812"/>
      <use xlink:href="#DejaVuSans-65" x="181.982422"/>
      <use xlink:href="#DejaVuSans-6c" x="243.505859"/>
      <use xlink:href="#DejaVuSans-69" x="271.289062"/>
      <use xlink:href="#DejaVuSans-6e" x="299.072266"/>
      <use xlink:href="#DejaVuSans-65" x="362.451172"/>
      <use xlink:href="#DejaVuSans-20" x="423.974609"/>
      <use xlink:href="#DejaVuSans-42" x="455.761719"/>
      <use xlink:href="#DejaVuSans-69" x="524.365234"/>
      <use xlink:href="#DejaVuSans-74" x="552.148438"/>
      <use xlink:href="#DejaVuSans-73" x="591.357422"/>
      <use xlink:href="#DejaVuSans-77" x="643.457031"/>
      <use xlink:href="#DejaVuSans-61" x="725.244141"/>
      <use xlink:href="#DejaVuSans-70" x="786.523438"/>
     </g>
    </g>
   </g>
  </g>
 </g>
 <defs>
  <clipPath id="p7e639123de">
   <rect x="57.6" y="41.472" width="357.12" height="266.112"/>
  </clipPath>
 </defs>
</svg>
